<svg id="Layer_1" data-name="Layer 1" xmlns="http://www.w3.org/2000/svg" width="45" height="45" viewBox="0 0 45 45"><defs><style>.cls-1,.cls-2{fill:#4f5c59;}.cls-2{fill-rule:evenodd;}</style></defs><g id="instagram_filled" data-name="instagram filled"><path id="Path_27" data-name="Path 27" class="cls-1" d="M22.35,33.76A11.19,11.19,0,1,1,33.53,22.57,11.19,11.19,0,0,1,22.35,33.76m0-18.17a7,7,0,1,0,7,7h0a7,7,0,0,0-7-7"/><path id="Path_28" data-name="Path 28" class="cls-1" d="M30.62,44.63H14.38A13.77,13.77,0,0,1,.63,30.88V14.12A13.77,13.77,0,0,1,14.38.37H30.62A13.77,13.77,0,0,1,44.37,14.12V30.88A13.77,13.77,0,0,1,30.62,44.63M14.38,4.58a9.56,9.56,0,0,0-9.54,9.54V30.88a9.54,9.54,0,0,0,9.54,9.54H30.62a9.55,9.55,0,0,0,9.54-9.54V14.12a9.56,9.56,0,0,0-9.54-9.54Z"/><path id="Path_29" data-name="Path 29" class="cls-2" d="M36.89,10.84a2.66,2.66,0,1,1-2.65-2.65h0a2.64,2.64,0,0,1,2.65,2.65"/></g></svg>